<mxfile host="app.diagrams.net" agent="Mozilla/5.0 (Macintosh; Intel Mac OS X 10_15_7) AppleWebKit/537.36 (KHTML, like Gecko) Chrome/133.0.0.0 Safari/537.36" version="26.0.16">
  <diagram name="Página-1" id="bPMqEWpgiFtMlEX7bFRx">
    <mxGraphModel dx="1467" dy="843" grid="0" gridSize="10" guides="1" tooltips="1" connect="1" arrows="1" fold="1" page="1" pageScale="1" pageWidth="2800" pageHeight="2800" math="0" shadow="0">
      <root>
        <mxCell id="0" />
        <mxCell id="1" parent="0" />
        <mxCell id="cEBowWhGGU-GeRdVVZ5i-7" value="" style="rounded=0;whiteSpace=wrap;html=1;strokeColor=light-dark(#FF8000, #bd5c17);fillColor=none;" vertex="1" parent="1">
          <mxGeometry x="309" y="48" width="466" height="358" as="geometry" />
        </mxCell>
        <mxCell id="cEBowWhGGU-GeRdVVZ5i-1" value="Região sa-east-1" style="points=[[0,0],[0.25,0],[0.5,0],[0.75,0],[1,0],[1,0.25],[1,0.5],[1,0.75],[1,1],[0.75,1],[0.5,1],[0.25,1],[0,1],[0,0.75],[0,0.5],[0,0.25]];outlineConnect=0;gradientColor=none;html=1;whiteSpace=wrap;fontSize=12;fontStyle=0;container=1;pointerEvents=0;collapsible=0;recursiveResize=0;shape=mxgraph.aws4.group;grIcon=mxgraph.aws4.group_region;strokeColor=#00A4A6;fillColor=none;verticalAlign=top;align=left;spacingLeft=30;fontColor=#147EBA;dashed=1;" vertex="1" parent="1">
          <mxGeometry x="360" y="100" width="380" height="270" as="geometry" />
        </mxCell>
        <mxCell id="cEBowWhGGU-GeRdVVZ5i-3" value="&lt;b&gt;S3&lt;/b&gt;" style="sketch=0;points=[[0,0,0],[0.25,0,0],[0.5,0,0],[0.75,0,0],[1,0,0],[0,1,0],[0.25,1,0],[0.5,1,0],[0.75,1,0],[1,1,0],[0,0.25,0],[0,0.5,0],[0,0.75,0],[1,0.25,0],[1,0.5,0],[1,0.75,0]];outlineConnect=0;fontColor=light-dark(#232F3E,#FFFFFF);fillColor=#7AA116;strokeColor=#ffffff;dashed=0;verticalLabelPosition=bottom;verticalAlign=top;align=center;html=1;fontSize=12;fontStyle=0;aspect=fixed;shape=mxgraph.aws4.resourceIcon;resIcon=mxgraph.aws4.s3;" vertex="1" parent="cEBowWhGGU-GeRdVVZ5i-1">
          <mxGeometry x="151" y="96" width="78" height="78" as="geometry" />
        </mxCell>
        <mxCell id="cEBowWhGGU-GeRdVVZ5i-12" value="HTTP" style="text;html=1;align=center;verticalAlign=middle;whiteSpace=wrap;rounded=0;" vertex="1" parent="cEBowWhGGU-GeRdVVZ5i-1">
          <mxGeometry x="8" y="94" width="60" height="30" as="geometry" />
        </mxCell>
        <mxCell id="cEBowWhGGU-GeRdVVZ5i-5" style="edgeStyle=orthogonalEdgeStyle;rounded=0;orthogonalLoop=1;jettySize=auto;html=1;endArrow=block;endFill=1;strokeWidth=4;strokeColor=light-dark(#000000,#FF0080);" edge="1" parent="1" source="cEBowWhGGU-GeRdVVZ5i-4" target="cEBowWhGGU-GeRdVVZ5i-3">
          <mxGeometry relative="1" as="geometry" />
        </mxCell>
        <mxCell id="cEBowWhGGU-GeRdVVZ5i-4" value="&lt;font style=&quot;color: light-dark(rgb(0, 0, 0), rgb(255, 255, 255));&quot;&gt;&lt;b&gt;Usuário&lt;/b&gt;&lt;/font&gt;" style="verticalLabelPosition=bottom;html=1;verticalAlign=top;align=center;strokeColor=none;fillColor=light-dark(#A680B8,#A680B8);shape=mxgraph.azure.user;" vertex="1" parent="1">
          <mxGeometry x="213" y="210" width="47.5" height="50" as="geometry" />
        </mxCell>
        <mxCell id="cEBowWhGGU-GeRdVVZ5i-6" value="" style="outlineConnect=0;dashed=0;verticalLabelPosition=bottom;verticalAlign=top;align=center;html=1;shape=mxgraph.aws3.cloud_2;fillColor=light-dark(#F58534, #bd5c17);gradientColor=none;" vertex="1" parent="1">
          <mxGeometry x="309" y="48" width="35" height="35" as="geometry" />
        </mxCell>
        <mxCell id="cEBowWhGGU-GeRdVVZ5i-8" value="&lt;font style=&quot;color: light-dark(rgb(255, 128, 0), rgb(255, 128, 0));&quot;&gt;AWS Cloud&lt;/font&gt;" style="text;html=1;align=center;verticalAlign=middle;whiteSpace=wrap;rounded=0;" vertex="1" parent="1">
          <mxGeometry x="346" y="50.5" width="84" height="30" as="geometry" />
        </mxCell>
      </root>
    </mxGraphModel>
  </diagram>
</mxfile>
